<svg xmlns="http://www.w3.org/2000/svg" viewBox="0 0 48.03 32.71"><rect fill="#fff" x=".02" y=".35" width="48" height="32" rx="4"/><path fill="#2a6db5" d="M8.9 18.25v8.16h8.26l.84-1.22.84 1.22h5.05v-1.84h.56a4.78 4.78 0 0 0 1.5-.22v2.06h3.45V25l1.16 1.46h15.62a3.27 3.27 0 0 0 1.82-.5v3.44a4 4 0 0 1-3.89 3H4a4 4 0 0 1-4-4V15.75h2.3l.47-1.22h1.12l.46 1.22h18.34v-1.46l1.16 1.46h4.81V15a3.88 3.88 0 0 0 2.42.74H34l.46-1.22h1.12l.42 1.23h4.9v-1.58l1 1.58h3.4V7.59h-3.59v1.66l-1.07-1.66H37.5v2.1l-1-2.1h-5.34a3.93 3.93 0 0 0-2.5.82v-.82H11l-.6 1.76-.6-1.8h-4v2.1l-.94-2.1H1.62L0 11.35v-7a4 4 0 0 1 4-4h40.11a4 4 0 0 1 3.91 3v14.9H18.88l-.88 1.2-.84-1.2Z"/><path fill="#2a6db5" d="M14.73 20.71v-1.2H10.2v5.64h4.53V24h-3.17v-1h3.11v-1.27h-3.11v-1Zm4.09 1.64 2.26-2.8h-1.66L18 21.29l-1.39-1.78h-1.7l2.29 2.84-2.2 2.8h1.64l1.36-1.8 1.36 1.82h1.74Zm5.63-2.8h-3.11v5.6h1.37v-1.86h1.7a1.85 1.85 0 0 0 2-1.9 1.82 1.82 0 0 0-2-1.88Zm-.12 2.58h-1.62v-1.42h1.62a.69.69 0 0 1 0 1.38Zm6.29 1a1.79 1.79 0 1 0-.42-3.56h-3.06v5.58h1.36v-2h.62l1.68 2h1.71ZM30.08 22H28.5v-1.3h1.58a.65.65 0 0 1 .49.16.62.62 0 0 1 .21.46.61.61 0 0 1-.21.48.58.58 0 0 1-.49.14Zm7.3-1.24v-1.2h-4.55v5.58h4.55V24h-3.17v-1h3.09v-1.27h-3.09v-1Zm3.77 1h-1.31a.5.5 0 0 1-.53-.21.53.53 0 0 1 0-.57.52.52 0 0 1 .53-.22h2.43l.54-1.2h-2.93a1.79 1.79 0 0 0-1.37.44 1.75 1.75 0 0 0-.57 1.32 1.58 1.58 0 0 0 .49 1.25 1.55 1.55 0 0 0 1.27.43H41a.51.51 0 0 1 .52.22.5.5 0 0 1 0 .57.49.49 0 0 1-.52.21h-2.9v1.2H41a1.69 1.69 0 0 0 1.36-.49 1.78 1.78 0 0 0 .53-1.35 1.56 1.56 0 0 0-1.76-1.62Zm3.9-1h2.43l.52-1.21h-2.91a1.79 1.79 0 0 0-1.37.44 1.75 1.75 0 0 0-.57 1.32 1.58 1.58 0 0 0 .49 1.25 1.55 1.55 0 0 0 1.27.41h1.29a.51.51 0 0 1 .52.22.5.5 0 0 1 0 .57.49.49 0 0 1-.52.21h-2.89v1.2h2.87A1.77 1.77 0 0 0 48 24v-1.33a1.63 1.63 0 0 0-1.64-.94H45a.5.5 0 0 1-.53-.21.53.53 0 0 1 0-.57.52.52 0 0 1 .53-.22ZM4.25 8.85H2.47L0 14.49h1.5l.5-1.14h2.65l.48 1.18h1.54ZM2.4 12.21l.6-1.32.31-.89.36.88.54 1.32Zm9.32-3.36-1.1 3.26-.18.62-.18-.62-1.12-3.26H6.93v5.64h1.33V9.93l.28.86 1.28 3.7H11l1.31-3.7.26-.86v4.56h1.32V8.85Zm7.8 1.2v-1.2H15v5.64h4.5v-1.2h-3.15v-1h3.09v-1.22h-3.09v-1Zm4.41 2.36a1.74 1.74 0 0 0 1.54-1.78 1.79 1.79 0 0 0-2-1.78h-3v5.64h1.39v-2h.62l1.68 2h1.7Zm-.54-1.12h-1.58v-1.24h1.58a.63.63 0 0 1 .49 1.1.58.58 0 0 1-.49.14Zm2.74-2.44v5.64h1.37V8.85Zm5 1.22h1.47V8.85H31a2.58 2.58 0 0 0-2 .77 2.55 2.55 0 0 0-.71 2v.08a2.49 2.49 0 0 0 2.62 2.78H31l.55-1.2h-.45a1.39 1.39 0 0 1-1.46-1.58v-.08a1.35 1.35 0 0 1 .36-1.1 1.41 1.41 0 0 1 1.09-.45Zm4.78-1.22h-1.8l-2.42 5.64h1.46l.48-1.14h2.67l.48 1.18h1.54Zm-1.84 3.36.52-1.32L35 10l.34.88.54 1.32Zm8.56-3.36v3.68l-.38-.64-2-3h-1.67v5.64h1.34v-3.84l.36.62 2.09 3.18H44V8.85Z"/></svg>
