<svg xmlns="http://www.w3.org/2000/svg" viewBox="0 0 50 34"><rect fill="#222b36" x="1" y="1" width="48" height="32" rx="4"/><path fill="#fff" d="M11.44 24c2.31 0 2.69-1.62 2.69-2.27a2.36 2.36 0 0 0-.81-1.7 2.38 2.38 0 0 0-1.8-.58H9.63v.17c.29 0 .59 0 .59.56v3.15c0 .45-.2.46-.59.5V24Zm-.58-4.31a4.34 4.34 0 0 1 .51 0 2 2 0 0 1 2 2.1 1.81 1.81 0 0 1-1.87 2c-.32 0-.68-.06-.68-.56ZM15.75 24v-.17h-.11c-.19 0-.33 0-.33-.22V21h-.12c-.23.09-.46.17-.7.24v.1c.24.13.34.17.34.46v1.76c0 .22-.13.22-.31.22h-.13V24h1.36Zm-.7-3.94a.33.33 0 0 0 .23-.1.32.32 0 0 0 .09-.23.33.33 0 0 0-.32-.31.32.32 0 0 0 0 .64Zm4.15 3.81h-.11c-.19 0-.33 0-.33-.22V22c0-.5-.19-.91-.75-.91a1.88 1.88 0 0 0-1.12.49v-.49a8.82 8.82 0 0 1-.86.31v.13c.3.12.38.19.38.43v1.72c0 .22-.13.22-.32.22H16v.1h1.39v-.17h-.12c-.18 0-.32 0-.32-.22v-1.88a1.62 1.62 0 0 1 .75-.32.54.54 0 0 1 .6.56v1.68c0 .22-.13.22-.31.22h-.12V24h1.33Zm1.22.27a1.53 1.53 0 0 0 1.21-.74l-.09-.09a1.24 1.24 0 0 1-.88.43 1.08 1.08 0 0 1-1-1.12 2.41 2.41 0 0 1 0-.38h1.89v-.12a1 1 0 0 0-.33-.74 1 1 0 0 0-.77-.26c-.45 0-1.31.38-1.31 1.66a1.3 1.3 0 0 0 .36.95 1.33 1.33 0 0 0 .92.41Zm0-2.87a.55.55 0 0 1 .41.17.57.57 0 0 1 .15.43c0 .08 0 .16-.18.16h-1.08c.08-.47.35-.76.75-.76Zm1.5 2.6h-.18V24h1.69v-.17h-.36c-.19 0-.32 0-.32-.22v-1.49a.55.55 0 0 1 .48-.54c.23 0 .23.16.43.16a.32.32 0 0 0 .22-.1.29.29 0 0 0 .08-.23.33.33 0 0 0-.11-.25.32.32 0 0 0-.26-.1c-.39 0-.67.42-.83.67v-.58c0-.07 0-.09-.06-.09s-.32.17-.8.37v.1c.1 0 .34.09.34.29v1.83c-.01.22-.14.22-.32.22Zm3.15.06a.86.86 0 0 1-.82-.8h-.12l.08.74a1.68 1.68 0 0 0 .79.23c.77 0 1.12-.46 1.12-.89 0-1-1.51-.79-1.51-1.55a.47.47 0 0 1 .16-.32.45.45 0 0 1 .35-.11.68.68 0 0 1 .71.64H26v-.66a1.73 1.73 0 0 0-.74-.19.89.89 0 0 0-1 .84c0 1 1.42.8 1.42 1.57a.48.48 0 0 1-.16.39.46.46 0 0 1-.4.11Zm6.79-.14.15-.95h-.15A1.32 1.32 0 0 1 30.55 24a2.12 2.12 0 0 1-1.94-2.26 1.88 1.88 0 0 1 .45-1.45 1.86 1.86 0 0 1 1.38-.62 1.25 1.25 0 0 1 1.4 1.07H32l-.07-.93a4.73 4.73 0 0 0-1.53-.35 2.4 2.4 0 0 0-2.47 2.3 2.32 2.32 0 0 0 2.49 2.45 3.64 3.64 0 0 0 1.44-.39Zm1.77.21v-.17h-.11c-.19 0-.33 0-.33-.22V19a.22.22 0 0 0-.14.07 4 4 0 0 1-.67.28v.11c.24.07.34.08.34.51v3.62c0 .22-.13.22-.31.22h-.13V24h1.35Zm.37-2.31v1.67a.71.71 0 0 0 .71.78 1.77 1.77 0 0 0 1.16-.55v.53a7.51 7.51 0 0 1 .94-.21v-.11h-.21c-.11 0-.19 0-.19-.12v-2.52s-.43.05-1 .09v.12c.23.06.54.13.54.26v1.76a1.45 1.45 0 0 1-.78.39c-.57 0-.57-.56-.57-.75v-1.68c0-.14 0-.19-.07-.19l-.84.05v.12c.31.03.31.19.31.36ZM37.19 20v2.8a8.08 8.08 0 0 1-.09 1.2l.13.07.2-.15a1.91 1.91 0 0 0 .9.23 1.65 1.65 0 0 0 1.56-1.71 1.27 1.27 0 0 0-1.21-1.37 1.64 1.64 0 0 0-1 .47v-2.48l-.15.07a3.27 3.27 0 0 1-.67.28v.11c.23.07.33.08.33.48Zm.52 1.69a1 1 0 0 1 .62-.31 1.24 1.24 0 0 1 1 1.29c0 .58-.29 1.27-1 1.27a.71.71 0 0 1-.67-.67Zm-27.57 3.77h-.52v.14h.07c.13 0 .24 0 .25.19v1.85c0 .18-.12.19-.25.19H9.6V28h1.08v-.13c-.13 0-.25 0-.25-.19v-1.91c0-.18.12-.19.25-.19h.07v-.14Zm3.11 0h-.5v.14h.09c.11 0 .29 0 .3.32v1.3l-1.56-1.75h-.74v.14h.06a.35.35 0 0 1 .22.08.31.31 0 0 1 .09.22v1.5c0 .28-.07.43-.31.43h-.08V28h.94v-.13h-.08c-.26 0-.31-.09-.32-.4V26l1.8 2h.17v-2c0-.41.16-.43.3-.43h.07v-.14Zm2.9-.13c0 .09-.08.09-.18.09h-1.85c-.09 0-.15 0-.18-.09h-.11a1.41 1.41 0 0 1 0 .29v.3H14c.06-.26.06-.31.32-.31h.56v1.88c0 .27-.08.27-.28.28h-.08V28h1.17v-.13h-.08c-.17 0-.28 0-.28-.29v-1.93h.56c.23 0 .24.19.25.33l.13-.05v-.58h-.1Zm2.12 1.99c-.1.4-.28.42-.7.42-.23 0-.42 0-.42-.22v-.81h.41c.24 0 .24.13.26.34H18v-.82h-.14c0 .19-.06.29-.26.3h-.41v-.9h.48c.36 0 .39.17.41.4h.12v-.56h-1.84v.14h.06c.13 0 .24 0 .25.19v1.85c0 .18-.12.19-.25.19h-.06V28h1.94a3 3 0 0 1 .12-.56h-.11Zm2.36.28-.6-.89a.68.68 0 0 0 .49-.63c0-.51-.42-.64-.86-.64h-1.12v.14h.08c.11 0 .24 0 .24.25v1.8c0 .12-.11.18-.24.18h-.08V28h1.12v-.13h-.06c-.17 0-.27 0-.28-.27v-.8h.21a9.68 9.68 0 0 0 .74 1.14h.34L21 28v-.13a.38.38 0 0 1-.37-.27ZM20 26.1c0 .42-.18.54-.53.54h-.16v-1h.19a.46.46 0 0 1 .5.46Zm3.93-.52v-.14H23v.14h.09c.11 0 .29 0 .3.32v1.3l-1.59-1.75h-.74v.14h.06a.35.35 0 0 1 .22.08.31.31 0 0 1 .09.22v1.49c0 .29-.07.44-.31.44h-.06V28H22v-.13h-.08c-.26 0-.31-.09-.31-.4V26l1.79 2h.17v-2c0-.41.16-.43.3-.43h.06Zm2.2 2.1a1.12 1.12 0 0 0-.13-.36l-.65-1.86v-.09a1.66 1.66 0 0 1-.33.15 3.88 3.88 0 0 1-.14.45l-.56 1.63a.31.31 0 0 1-.3.22V28h.81v-.13h-.06c-.11 0-.25 0-.25-.11a2.76 2.76 0 0 1 .08-.27l.11-.36h.78l.14.4a1 1 0 0 1 .07.25c0 .07-.12.09-.21.09V28h1v-.13a.22.22 0 0 1-.22 0 .21.21 0 0 1-.11-.19Zm-.82-.84h-.62l.31-.95Zm3.15-1.51c0 .09-.08.09-.18.09h-1.84c-.09 0-.16 0-.18-.09h-.12a1.41 1.41 0 0 1 0 .29v.31h.14c0-.26 0-.31.31-.31h.57v1.88c0 .27-.09.27-.28.28h-.09V28H28v-.13h-.08c-.17 0-.28 0-.28-.29v-1.93h.57c.22 0 .23.19.24.33l.13-.05a1.41 1.41 0 0 1 0-.29v-.29h-.1Zm.76.13h-.53v.14h.06c.13 0 .25 0 .25.19v1.85c0 .18-.12.19-.25.19h-.06V28h1.08v-.13h-.07c-.13 0-.24 0-.24-.19v-1.91c0-.18.11-.19.24-.19h.07v-.14Zm1.96-.07a1.3 1.3 0 0 0-1.32 1.32 1.25 1.25 0 0 0 .39.94 1.28 1.28 0 0 0 .95.35 1.32 1.32 0 0 0 1.36-1.37 1.27 1.27 0 0 0-1.38-1.24Zm0 .19c.57 0 .85.61.85 1.13s-.12 1.1-.79 1.1-.85-.59-.85-1.22c0-.47.18-1 .79-1Zm4.32 0v-.14h-.93v.14h.09c.1 0 .29 0 .29.32v1.3l-1.56-1.75h-.73v.14h.06a.28.28 0 0 1 .3.3v1.5c0 .28-.07.43-.3.43h-.06V28h.94v-.13h-.07c-.27 0-.31-.09-.32-.4V26L35 28h.16a2 2 0 0 1 0-.35V26c0-.41.15-.43.3-.43Zm2.2 2.1c-.05-.12-.09-.24-.13-.36l-.65-1.86v-.09a1.87 1.87 0 0 1-.32.15 3.88 3.88 0 0 1-.14.45l-.57 1.63a.31.31 0 0 1-.29.22V28h.81v-.13c-.12 0-.25 0-.25-.11a1.38 1.38 0 0 1 .08-.27l.11-.36H37l.13.4a1 1 0 0 1 .07.25c0 .07-.12.09-.2.09V28h1v-.13a.19.19 0 0 1-.18 0 .22.22 0 0 1-.12-.19Zm-.83-.84h-.62l.32-.95Zm3.13.47a.8.8 0 0 1-.11.25.52.52 0 0 1-.33.18h-.46a.18.18 0 0 1-.2-.19v-1.79c0-.18.09-.18.22-.18h.11v-.14h-1.1v.14h.06c.13 0 .25 0 .25.19v1.82c0 .21-.12.22-.25.22h-.06V28H40a3.22 3.22 0 0 1 .13-.6H40Zm.07-1.57a.12.12 0 0 0 .09-.11c0-.07-.06-.1-.13-.1h-.19v.33h.1v-.12c.07.09.1.17.14.17h.07l-.08-.09Zm-.11 0v-.17a.07.07 0 0 1 .08.08c0 .05 0 .09-.07.09Z"/><path fill="#fff" d="M40 25.36a.38.38 0 0 0-.36.38.37.37 0 0 0 .74 0 .39.39 0 0 0-.11-.27.34.34 0 0 0-.27-.1Zm0 .64a.3.3 0 1 1 .3-.3.31.31 0 0 1-.3.3Z"/><path fill="#0979bd" d="M26.36 18.59a6.55 6.55 0 0 0 6.58-6.24A6.42 6.42 0 0 0 26.36 6h-3A6.2 6.2 0 0 0 17 12.35a6.31 6.31 0 0 0 6.34 6.24Z"/><path fill="#fff" d="M23.42 6.52a5.76 5.76 0 1 0 5.76 5.76 5.76 5.76 0 0 0-5.76-5.76Zm-3.65 5.76a3.65 3.65 0 0 1 2.34-3.41v6.82a3.65 3.65 0 0 1-2.34-3.41Zm4.95 3.41V8.87a3.65 3.65 0 0 1 0 6.82Z"/><path fill="#0979bd" d="M26.36 18.59a6.55 6.55 0 0 0 6.58-6.24A6.42 6.42 0 0 0 26.36 6h-3A6.2 6.2 0 0 0 17 12.35a6.31 6.31 0 0 0 6.34 6.24Z"/><path fill="#fff" d="M23.42 6.52a5.76 5.76 0 1 0 5.76 5.76 5.76 5.76 0 0 0-5.76-5.76Zm-3.65 5.76a3.65 3.65 0 0 1 2.34-3.41v6.82a3.65 3.65 0 0 1-2.34-3.41Zm4.95 3.41V8.87a3.65 3.65 0 0 1 0 6.82Z"/></svg>
