<svg xmlns="http://www.w3.org/2000/svg" viewBox="0 0 50 34"><path fill="#dee2e7" d="M49 5v24a4 4 0 0 1-4 4H5a3.94 3.94 0 0 1-1.36-.24A4 4 0 0 1 1 29V5a4 4 0 0 1 4-4h40a4 4 0 0 1 4 4Z"/><path fill="#ed7624" d="M49 17v12a4.05 4.05 0 0 1-4.06 4H4.38A4 4 0 0 1 3 32.76c3.41-.49 6.69-1.09 9.92-1.78.85-.16 1.68-.36 2.51-.54 13.41-3.05 25-7.53 31.54-11.93C47.7 18 48.39 17.5 49 17Z"/><path fill="#221f1f" d="M6.82 11.64H5V18h1.82a3.4 3.4 0 0 0 2.3-.72 3.22 3.22 0 0 0-2.3-5.68Zm1.48 4.8a2.33 2.33 0 0 1-1.72.56h-.32v-4.28h.32a2.33 2.33 0 0 1 1.72.52 2.12 2.12 0 0 1 .7 1.6 2.16 2.16 0 0 1-.7 1.6Zm2.55-4.81h1.25v6.42h-1.25zm4.32 2.46c-.75-.27-1-.46-1-.81a.86.86 0 0 1 .93-.71 1.36 1.36 0 0 1 1 .52l.65-.85a2.71 2.71 0 0 0-1.88-.72 1.88 1.88 0 0 0-2 1.84c0 .89.4 1.34 1.57 1.76a5.54 5.54 0 0 1 .87.37.76.76 0 0 1 .38.66.93.93 0 0 1-1 .91 1.47 1.47 0 0 1-1.36-.86l-.81.78a2.49 2.49 0 0 0 2.28 1.22 2.07 2.07 0 0 0 2.2-2.1c0-1.02-.41-1.49-1.83-2.01Zm2.24.75a3.33 3.33 0 0 0 3.39 3.35 3.42 3.42 0 0 0 1.57-.37v-1.47a2 2 0 0 1-1.51.7 2.14 2.14 0 0 1-1.57-.64 2.1 2.1 0 0 1-.59-1.58 2.1 2.1 0 0 1 .59-1.54 2.15 2.15 0 0 1 1.51-.66 2.08 2.08 0 0 1 1.57.72v-1.47a3.18 3.18 0 0 0-1.54-.4 3.38 3.38 0 0 0-3.42 3.36Zm14.89 1.1-1.72-4.31h-1.36l2.72 6.58h.67l2.78-6.58h-1.36l-1.73 4.31zm3.65 2.11h3.56v-1.09H37.2v-1.73h2.22v-1.09H37.2v-1.42h2.31v-1.09h-3.56v6.42zM43 15.36a1.73 1.73 0 0 0 1.46-1.84c0-1.2-.82-1.88-2.28-1.88h-1.84V18h1.26v-2.54h.14L43.48 18H45Zm-1-.78h-.4v-1.94h.4c.76 0 1.18.32 1.18 1s-.44.94-1.18.94Z"/><path fill="#ed7624" d="M29.59 14.84a3.41 3.41 0 1 1-3.41-3.41 3.41 3.41 0 0 1 3.41 3.41Z"/><path fill="#221f1f" d="M45 11.9a.14.14 0 0 0 .12-.14c0-.12-.08-.18-.22-.18h-.2v.58h.14v-.24l.18.24h.16Zm-.12-.08v-.12c.06 0 .1 0 .1.06s0 .06-.08.06Z"/><path fill="#221f1f" d="M44.94 11.36a.5.5 0 1 0 .52.5.51.51 0 0 0-.15-.36.47.47 0 0 0-.37-.14Zm.26.8a.32.32 0 0 1-.26.12.37.37 0 0 1-.28-.13.39.39 0 1 1 .66-.29.47.47 0 0 1-.12.3Z"/></svg>
