<svg xmlns="http://www.w3.org/2000/svg" viewBox="0 0 50 34"><rect fill="#dee2e7" x="1" y="1" width="48" height="32" rx="4"/><path fill="#fff" d="M9.03 11.41h9.85v13.54H9.03zm11.06 0h9.87v11.9h-9.87zm11.05-.28h9.85v13.02h-9.85z"/><path fill="#40a548" d="M33.1 19.57h2.59a1 1 0 0 0 .81-1 1.08 1.08 0 0 0-.81-1 1.31 1.31 0 0 0-.28 0H33.1Z"/><path fill="#40a548" d="M35.14 5a4 4 0 0 0-4 4v4.15h5.65a1.34 1.34 0 0 1 .4 0c1.27.06 2.22.72 2.22 1.86a1.88 1.88 0 0 1-1.83 1.83c1.3.09 2.29.81 2.29 1.94s-1.1 2-2.55 2h-6.2V29H37a4 4 0 0 0 4-4V5Z"/><path fill="#40a548" d="M36.22 15.31a.94.94 0 0 0-.81-1H33.1v1.93h2.09a.81.81 0 0 0 .22 0 .93.93 0 0 0 .81-.94Z"/><path fill="#0c68af" d="M13 5a4 4 0 0 0-4 4v9.87a7.87 7.87 0 0 0 3.45.9 1.92 1.92 0 0 0 2.14-2v-4.64H18v4.64c0 1.8-1.12 3.27-4.92 3.27a16.94 16.94 0 0 1-4.08-.5V29h5.87a4 4 0 0 0 4-4V5Z"/><path fill="#bd2134" d="M24.09 5a4 4 0 0 0-4 4v5.23c1-.86 2.77-1.41 5.6-1.27a16.67 16.67 0 0 1 3.14.48v1.69a7.54 7.54 0 0 0-3-.88c-2.15-.15-3.45.9-3.45 2.75s1.3 2.92 3.45 2.75a8.06 8.06 0 0 0 3-.88v1.69a16.67 16.67 0 0 1-3.14.48c-2.83.14-4.59-.41-5.6-1.27V29H26a4 4 0 0 0 4-4V5Z"/></svg>
