<svg xmlns="http://www.w3.org/2000/svg" viewBox="0 0 1024 397" fill="currentColor"><path d="M800 198h32v-32h32v-32h-64v32h-32v64h32v-32zm-384-64V70h-32V38h-32V6H128v32H96v32H64v96H32v-32H0v64h32v64h32v64h32v32h32v32h224v-32h32v-32h32v-96h32v-64h-32Zm-64 32v128h-32v32H160v-32h-32V102h32V70h160v32h32v64Z"/><path d="M992 134v32h-32V70h-32V38h-32V6H672v32h-32v32h-32v96h-32v64h32v96h32v32h32v32h224v-32h32v-32h32v-64h32v-64h32v-64ZM672 294V102h32V70h160v32h32v192h-32v32H672ZM192 102v32h-32v64h32v-32h32v-32h32v-32h-64zm384 0H448v64h128v-64z"/></svg>
