<svg xmlns="http://www.w3.org/2000/svg" viewBox="0 0 50 34"><g data-name="mastercard-color large"><rect fill="#f2f0eb" x="1" y="1" width="48" height="32" rx="4"/><path fill="#f2f0eb" d="M5.65 4.2h38.71v25.6H5.65z"/><path fill="#f16223" d="M19.9 8.66h10.21v16.68H19.9z"/><path fill="#e82128" d="M21 17a10.57 10.57 0 0 1 4-8.34 10.61 10.61 0 1 0 0 16.68A10.57 10.57 0 0 1 21 17Z"/><path fill="#f49d20" d="M41.14 23.57v-.34h.15v-.07h-.35v.07h.14v.34Zm.68 0v-.41h-.1l-.12.29-.13-.29h-.1v.41h.07v-.31l.12.27h.08l.11-.27v.31Zm.34-6.57A10.61 10.61 0 0 1 25 25.34a10.61 10.61 0 0 0 1.78-14.89A10.4 10.4 0 0 0 25 8.66 10.61 10.61 0 0 1 42.16 17Z"/></g></svg>
