<svg xmlns="http://www.w3.org/2000/svg" viewBox="0 0 50 34"><g><rect fill="#2a2c6b" x="1.19" y=".53" width="48" height="32" rx="4"/><path fill="#fff" d="m25.05 11.92-2 9.25h-2.4l2-9.25Zm10.06 6 1.26-3.47.73 3.47Zm2.67 3.28H40L38.06 12h-2a1.09 1.09 0 0 0-1 .68l-3.59 8.52H34l.49-1.38h3Zm-6.24-3c0-2.49-3.35-2.67-3.35-3.67 0-.33.32-.68 1-.77a4.47 4.47 0 0 1 2.36.41l.42-2a6.62 6.62 0 0 0-2.24-.41c-2.36 0-4 1.26-4 3.06 0 1.33 1.19 2.07 2.09 2.51s1.25.75 1.24 1.15c0 .62-.74.9-1.43.91a5 5 0 0 1-2.44-.6l-.43 2a7.09 7.09 0 0 0 2.66.49c2.51 0 4.16-1.24 4.17-3.16m-9.91-6.23-3.88 9.25h-2.61l-1.91-7.39a1 1 0 0 0-.57-.81 9.91 9.91 0 0 0-2.36-.78l.06-.27h4.07a1.13 1.13 0 0 1 1.11.94l1 5.35 2.49-6.29Z"/></g></svg>
